<svg width="24" height="24" viewBox="0 0 24 24" fill="none" xmlns="http://www.w3.org/2000/svg">
    <path fill-rule="evenodd" clip-rule="evenodd" d="M16.5972 7.22273C16.5972 9.78518 14.5423 11.8741 12.0215 11.8741C9.47349 11.8741 7.41857 9.78518 7.41857 7.22273C7.41857 4.66026 9.47349 2.57129 12.0215 2.57129C14.5423 2.57129 16.5972 4.66026 16.5972 7.22273ZM13.9121 7.22273C13.9121 6.16433 13.0627 5.30088 12.0215 5.30088C10.953 5.30088 10.1036 6.16433 10.1311 7.22273C10.1311 8.28115 10.9805 9.14454 12.0215 9.14454C13.0627 9.14454 13.9121 8.28115 13.9121 7.22273Z" fill="currentColor"/>
    <path d="M16.515 14.576C15.693 15.1051 14.7888 15.4672 13.8573 15.6901L16.4602 18.2525C16.9807 18.7818 16.9807 19.6451 16.4602 20.1744C15.9397 20.7036 15.0903 20.7036 14.5697 20.1744L12.049 17.6119L9.52832 20.1744C9.25433 20.4251 8.92554 20.5643 8.56936 20.5643C8.21318 20.5643 7.88439 20.453 7.6104 20.1744C7.08981 19.6451 7.08981 18.7818 7.6104 18.2525L10.1585 15.6622C9.22692 15.4393 8.32277 15.0773 7.50081 14.5481C6.87063 14.1582 6.67884 13.3226 7.03502 12.6819C7.44601 12.0413 8.26797 11.8743 8.89814 12.2642C10.7613 13.4618 13.1997 13.4618 15.0628 12.2642C15.693 11.8464 16.5424 12.0413 16.926 12.6819C17.3369 13.3226 17.1452 14.1859 16.515 14.576Z" fill="currentColor"/>
</svg>
