<svg width="24" height="24" viewBox="0 0 24 24" fill="none" xmlns="http://www.w3.org/2000/svg">
    <path d="M5.34677 11.535C9.48833 9.72054 12.25 8.52436 13.6318 7.94643C17.5772 6.2963 18.397 6.00966 18.9314 6.00009C19.0489 5.99811 19.3117 6.0274 19.4819 6.16628C19.6256 6.28355 19.6652 6.44197 19.6841 6.55315C19.703 6.66434 19.7266 6.91762 19.7078 7.11553C19.494 9.37442 18.5689 14.8562 18.0983 17.3862C17.8991 18.4567 17.507 18.8156 17.1274 18.8508C16.3024 18.9271 15.6759 18.3025 14.8768 17.7758C13.6264 16.9516 12.9201 16.4386 11.7063 15.6343C10.3037 14.7049 11.213 14.194 12.0123 13.3591C12.2215 13.1407 15.8566 9.81596 15.9269 9.51436C15.9357 9.47664 15.9439 9.33604 15.8608 9.26179C15.7778 9.18755 15.6551 9.21294 15.5667 9.23313C15.4413 9.26175 13.4438 10.5894 9.57417 13.2159C9.00719 13.6074 8.49363 13.7982 8.0335 13.7882C7.52624 13.7772 6.55049 13.4998 5.82511 13.2627C4.93541 12.9719 4.2283 12.8181 4.28987 12.3242C4.32194 12.067 4.67424 11.8039 5.34677 11.535Z" fill="currentColor"/>
</svg>
