<svg width="24" height="24" viewBox="0 0 24 24" fill="none" xmlns="http://www.w3.org/2000/svg">
    <path fill-rule="evenodd" clip-rule="evenodd" d="M6.55273 6.85693H4.86485C4.38259 6.85693 4.28613 7.1118 4.28613 7.39277C4.28613 7.89465 4.85837 10.3837 6.95055 13.6758C8.34534 15.924 10.3105 17.1426 12.0987 17.1426C13.1716 17.1426 13.3043 16.872 13.3043 16.4058V14.7066C13.3043 14.1652 13.406 14.0571 13.7457 14.0571C13.996 14.0571 14.4252 14.1977 15.4266 15.2816C16.5711 16.5663 16.7597 17.1426 17.4034 17.1426H19.0913C19.5736 17.1426 19.8147 16.872 19.6756 16.3378C19.5234 15.8055 18.977 15.033 18.252 14.1174C17.8585 13.5955 17.2684 13.0335 17.0896 12.7524C16.8393 12.3911 16.9108 12.2305 17.0896 11.9093C17.0896 11.9093 19.1461 8.65742 19.3607 7.55344C19.4679 7.15192 19.3607 6.85693 18.8502 6.85693H17.1623C16.7332 6.85693 16.5353 7.1118 16.428 7.39277C16.428 7.39277 15.5697 9.74137 14.3537 11.267C13.9603 11.7085 13.7814 11.8491 13.5668 11.8491C13.4596 11.8491 13.3043 11.7085 13.3043 11.3071V7.55344C13.3043 7.07163 13.1797 6.85693 12.822 6.85693H10.1696C9.90145 6.85693 9.74013 7.08051 9.74013 7.29245C9.74013 7.74914 10.3481 7.85449 10.4108 9.13917V11.9294C10.4108 12.5411 10.3123 12.6521 10.0978 12.6521C9.52558 12.6521 8.13368 10.293 7.30815 7.59355C7.1464 7.06887 6.98411 6.85693 6.55273 6.85693Z" fill="currentColor"/>
</svg>
