<svg width="160" height="160" viewBox="0 0 160 160" fill="none" xmlns="http://www.w3.org/2000/svg">
    <g opacity="0.3">
        <path d="M97.6674 127.156C87.4054 131.001 76.1694 131.393 65.6643 128.273C55.1592 125.153 45.9585 118.692 39.4583 109.869C32.9582 101.047 29.5134 90.3446 29.6468 79.3869C29.7802 68.4292 33.4843 57.814 40.1973 49.1522" stroke="#0B1C31"/>
        <path d="M62.3331 32.843C72.5951 28.9984 83.8311 28.6061 94.3362 31.7259C104.841 34.8456 114.042 41.307 120.542 50.1296C127.042 58.9522 130.487 69.6544 130.354 80.6121C130.22 91.5699 126.516 102.185 119.803 110.847" stroke="#0B1C31"/>
    </g>
    <path d="M48.9895 26.8598C48.4926 27.1511 48.0059 27.2912 47.5295 27.2799C47.0517 27.2664 46.6057 27.1199 46.1914 26.8403C45.7794 26.5595 45.4231 26.1625 45.1223 25.6495C44.8215 25.1365 44.6492 24.6317 44.6053 24.135C44.5637 23.637 44.6543 23.1774 44.8772 22.7561C45.0988 22.3326 45.458 21.9751 45.9549 21.6838C46.4495 21.3938 46.9357 21.2556 47.4135 21.2691C47.8922 21.279 48.3376 21.4244 48.7496 21.7053C49.1615 21.9862 49.5179 22.3831 49.8187 22.8961C50.1194 23.4091 50.2918 23.9139 50.3357 24.4106C50.3795 24.9073 50.2896 25.3681 50.0657 25.793C49.8429 26.2142 49.4841 26.5698 48.9895 26.8598ZM48.5869 26.1731C48.9416 25.9714 49.1886 25.723 49.3278 25.4281C49.4681 25.1295 49.5132 24.8031 49.4633 24.4491C49.412 24.0928 49.2751 23.7248 49.0526 23.3452C48.8301 22.9657 48.5772 22.6688 48.294 22.4546C48.0094 22.2381 47.7033 22.1193 47.3756 22.0982C47.0502 22.0757 46.7108 22.1664 46.3575 22.3705C46.0028 22.5722 45.7547 22.8213 45.6131 23.1176C45.4738 23.4125 45.4298 23.7382 45.4811 24.0945C45.5324 24.4508 45.6681 24.8195 45.8883 25.2004C46.1086 25.5813 46.361 25.88 46.6455 26.0965C46.9288 26.3107 47.2342 26.4283 47.5619 26.4495C47.8919 26.4693 48.2336 26.3772 48.5869 26.1731Z" fill="#0B1C31"/>
    <path d="M57.5963 21.7643L55.8999 16.2598L56.6988 16.0136L57.4905 18.5823L59.0039 15.3032L59.9977 14.9969L58.3909 18.4346L61.8738 20.4461L60.8493 20.7618L57.5847 18.8882L58.3952 21.5181L57.5963 21.7643Z" fill="#0B1C31"/>
    <path d="M64.8362 19.6076L64.7004 18.9046C64.8364 18.8919 64.9451 18.8641 65.0265 18.8212C65.1099 18.7752 65.1739 18.7058 65.2185 18.613C65.2625 18.5176 65.2903 18.3873 65.3018 18.2221C65.316 18.0564 65.32 17.8452 65.3138 17.5883C65.3102 17.2604 65.2957 16.9251 65.2702 16.5823C65.2448 16.2396 65.2133 15.9008 65.1757 15.5658C65.1403 15.2277 65.1019 14.9024 65.0605 14.59C65.0192 14.2775 64.9782 13.988 64.9376 13.7215L68.649 13.0045L69.7415 18.66L68.9207 18.8186L67.9776 13.9368L65.8568 14.3465C65.8842 14.5585 65.9137 14.7959 65.9455 15.0586C65.9772 15.3214 66.0081 15.6006 66.038 15.8963C66.068 16.1919 66.0932 16.4981 66.1136 16.8146C66.1366 17.1306 66.1494 17.45 66.152 17.7727C66.1565 18.0489 66.1454 18.3009 66.1188 18.5287C66.0922 18.7566 66.0352 18.9536 65.9478 19.1199C65.86 19.2835 65.7276 19.4069 65.5508 19.4899C65.3745 19.5756 65.1363 19.6148 64.8362 19.6076Z" fill="#0B1C31"/>
    <path d="M79.1189 18.0188L78.2712 18.0407L78.1604 13.7581L75.4362 18.1141L74.5884 18.136L74.4395 12.3779L75.2872 12.356L75.3979 16.6346L78.1222 12.2826L78.9699 12.2607L79.1189 18.0188Z" fill="#0B1C31"/>
    <path d="M83.6763 17.9148L84.0513 12.167L84.8855 12.2214L84.7238 14.7001L87.5977 14.8877L87.7594 12.4089L88.5976 12.4636L88.2226 18.2114L87.3844 18.1567L87.5464 15.674L84.6725 15.4865L84.5105 17.9692L83.6763 17.9148Z" fill="#0B1C31"/>
    <path d="M97.0352 19.823L96.2085 19.6344L97.1614 15.4577L93.4435 19.0035L92.6168 18.8149L93.8979 13.1992L94.7247 13.3878L93.7727 17.5606L97.4897 14.0186L98.3164 14.2073L97.0352 19.823Z" fill="#0B1C31"/>
    <path d="M101.284 21.4256L103.582 16.1436L104.348 16.477L103.276 18.9419L106.56 17.4389L107.514 17.8537L104.056 19.4162L105.389 23.2108L104.406 22.7832L103.149 19.2354L102.051 21.759L101.284 21.4256Z" fill="#0B1C31"/>
    <path d="M108.406 24.759L111.328 19.7949L114.499 21.6615L114.099 22.3406L111.648 20.8981L110.829 22.2908L112.866 23.4899L112.466 24.169L110.429 22.9699L109.526 24.5039L111.977 25.9465L111.577 26.6256L108.406 24.759Z" fill="#0B1C31"/>
    <path d="M109.882 134.801C110.379 134.51 110.866 134.37 111.342 134.381C111.82 134.394 112.266 134.541 112.68 134.821C113.092 135.101 113.449 135.498 113.75 136.011C114.05 136.525 114.223 137.029 114.266 137.526C114.308 138.024 114.217 138.484 113.994 138.905C113.773 139.328 113.414 139.686 112.917 139.977C112.422 140.267 111.936 140.405 111.458 140.392C110.979 140.382 110.534 140.236 110.122 139.955C109.71 139.675 109.354 139.278 109.053 138.765C108.752 138.251 108.58 137.747 108.536 137.25C108.492 136.753 108.582 136.293 108.806 135.868C109.029 135.446 109.388 135.091 109.882 134.801ZM110.285 135.488C109.93 135.689 109.683 135.938 109.544 136.233C109.404 136.531 109.358 136.857 109.408 137.212C109.46 137.568 109.596 137.936 109.819 138.315C110.042 138.695 110.294 138.992 110.578 139.206C110.862 139.423 111.168 139.541 111.496 139.563C111.821 139.585 112.161 139.494 112.514 139.29C112.869 139.089 113.117 138.84 113.258 138.543C113.398 138.248 113.442 137.923 113.391 137.566C113.339 137.21 113.204 136.841 112.983 136.461C112.763 136.08 112.511 135.781 112.226 135.564C111.943 135.35 111.638 135.233 111.31 135.211C110.98 135.191 110.638 135.284 110.285 135.488Z" fill="#0B1C31"/>
    <path d="M101.275 139.896L102.971 145.4L102.172 145.647L101.381 143.078L99.8672 146.357L98.8733 146.663L100.48 143.225L96.9977 141.214L98.0222 140.898L101.287 142.772L100.476 140.142L101.275 139.896Z" fill="#0B1C31"/>
    <path d="M94.0349 142.052L94.1707 142.755C94.0346 142.767 93.9259 142.795 93.8445 142.838C93.7611 142.884 93.6971 142.953 93.6525 143.046C93.6085 143.141 93.5807 143.272 93.5691 143.437C93.555 143.603 93.5509 143.814 93.5571 144.071C93.5606 144.399 93.5751 144.734 93.6006 145.077C93.626 145.419 93.6575 145.758 93.695 146.093C93.7304 146.431 93.7688 146.757 93.8101 147.069C93.8515 147.382 93.8924 147.671 93.933 147.938L90.2216 148.654L89.1295 142.999L89.9504 142.84L90.893 147.722L93.0138 147.313C92.9865 147.101 92.9569 146.863 92.9252 146.6C92.8935 146.338 92.8627 146.058 92.8327 145.763C92.8028 145.467 92.7776 145.161 92.7572 144.844C92.7342 144.528 92.7215 144.209 92.7189 143.886C92.7145 143.61 92.7255 143.358 92.7522 143.13C92.7788 142.902 92.8358 142.705 92.9232 142.539C93.0111 142.375 93.1434 142.252 93.3202 142.169C93.4965 142.083 93.7348 142.044 94.0349 142.052Z" fill="#0B1C31"/>
    <path d="M79.7517 143.639L80.5994 143.617L80.7098 147.9L83.4344 143.544L84.2821 143.522L84.4307 149.28L83.5829 149.302L83.4726 145.024L80.7479 149.375L79.9002 149.397L79.7517 143.639Z" fill="#0B1C31"/>
    <path d="M75.1948 143.742L74.8193 149.49L73.9851 149.436L74.147 146.957L71.2732 146.769L71.1112 149.248L70.273 149.193L70.6485 143.445L71.4867 143.5L71.3245 145.983L74.1984 146.171L74.3606 143.688L75.1948 143.742Z" fill="#0B1C31"/>
    <path d="M61.8359 141.834L62.6627 142.023L61.7094 146.199L65.4276 142.654L66.2543 142.842L64.9727 148.458L64.1459 148.269L65.0983 144.097L61.381 147.638L60.5543 147.45L61.8359 141.834Z" fill="#0B1C31"/>
    <path d="M57.5867 140.231L55.2891 145.513L54.5225 145.179L55.5947 142.714L52.3107 144.217L51.357 143.802L54.8152 142.24L53.4823 138.445L54.4653 138.873L55.7224 142.421L56.8201 139.897L57.5867 140.231Z" fill="#0B1C31"/>
    <path d="M50.4655 136.897L47.5435 141.86L44.3721 139.993L44.7719 139.314L47.2228 140.757L48.0426 139.365L46.0053 138.165L46.4051 137.486L48.4423 138.685L49.3453 137.152L46.8945 135.709L47.2942 135.03L50.4655 136.897Z" fill="#0B1C31"/>
</svg>