<svg class="absolute" width="160" height="160" viewBox="0 0 160 160" fill="none" xmlns="http://www.w3.org/2000/svg">
    <circle opacity="0.85" cx="79.9998" cy="80.0003" r="57.1429" fill="currentColor" fill-opacity="0.8"/>
    <path fill-rule="evenodd" clip-rule="evenodd" d="M64.7846 50.8925C63.9484 51.0647 62.1533 52.0284 61.2043 52.8149C58.7214 54.8723 56.6193 57.9047 55.0674 61.6679C54.0887 64.0411 53.6273 65.6798 53.1566 68.4533C52.4347 72.7067 52.5741 76.7529 53.6195 81.9016C54.5944 86.7024 56.5355 91.8347 59.2968 96.9119C60.5902 99.2901 62.0452 101.839 62.3211 102.21C62.4642 102.403 62.5813 102.585 62.5813 102.615C62.5813 102.733 63.5428 104.117 64.3624 105.178C66.0371 107.347 67.5301 108.45 68.9708 108.582C70.3016 108.705 71.2195 108.235 72.2656 106.896C72.9462 106.025 74.1095 103.798 74.8025 102.04C77.6346 94.8566 78.8357 92.7882 80.175 92.7882C81.3055 92.7882 82.4542 94.5249 85.1183 100.262C85.8351 101.806 87.0689 104.118 87.6431 104.994C88.3646 106.095 89.4857 107.192 90.2934 107.586C90.8213 107.844 91.0838 107.902 91.7158 107.901C92.8121 107.899 93.6066 107.466 94.9203 106.155C98.6652 102.417 102.854 92.0681 105.221 80.7085C106.209 75.9628 106.748 70.5435 106.536 67.4645C106.309 64.152 105.034 60.1204 103.315 57.2801C101.813 54.797 99.5275 52.7383 97.2249 51.7934C95.5822 51.1194 94.7344 50.955 92.8765 50.9504L91.169 50.9463L88.3598 51.9169C83.639 53.5482 82.4713 53.8087 79.9322 53.797C78.3187 53.7895 78.0611 53.7597 76.8877 53.4449C76.1826 53.2557 74.7202 52.7707 73.6378 52.3671C72.5555 51.9636 71.0006 51.4619 70.1827 51.2523C68.8674 50.9153 68.498 50.8665 66.9879 50.8309C66.0487 50.8087 65.0573 50.8364 64.7846 50.8925ZM69.9698 52.4057C70.6707 52.5871 72.2129 53.0886 73.3968 53.5202C75.8303 54.4074 77.2378 54.7923 78.7029 54.9712C81.0561 55.2587 83.8736 54.7341 88.1446 53.2133C91.1312 52.1498 91.4957 52.063 92.9316 52.0725C98.8139 52.112 103.363 57.0311 105.065 65.1919C105.352 66.5674 105.373 66.8451 105.366 69.1456C105.357 72.1413 105.023 75.5035 104.438 78.4927C102.201 89.9235 98.3765 100.24 94.7381 104.661C92.3361 107.58 90.6635 107.439 88.4983 104.135C88.0498 103.451 87.2651 102.043 86.7545 101.007L85.826 99.1222L85.8238 97.9071C85.821 96.3569 85.6787 95.3877 85.2874 94.2546C84.1196 90.8725 81.3592 89.242 78.5663 90.2846C77.7939 90.5729 77.162 91.0463 76.4832 91.8449C75.4913 93.0121 74.9053 94.7623 74.6486 97.3245C74.4525 99.2819 74.1936 100.315 73.5942 101.53C72.7484 103.246 71.7488 104.167 70.4235 104.45C68.8538 104.786 66.7688 103.617 65.1834 101.513C64.3726 100.436 63.164 98.1015 62.8015 96.9119C61.6155 93.0188 61.7156 88.8914 63.065 86.051C64.1872 83.689 64.6164 81.8707 64.6157 79.4823C64.6153 77.7911 64.4692 76.8349 63.9464 75.1011C63.576 73.873 63.1011 72.8177 61.2316 69.0684C59.1868 64.9674 58.6287 63.2539 58.6192 61.0477C58.61 58.8908 59.5738 56.0366 60.7367 54.7772C61.8218 53.6022 63.8519 52.2773 64.8948 52.0636C65.0462 52.0326 65.9634 52.0227 66.9328 52.0416C68.4649 52.0715 68.8621 52.1192 69.9698 52.4057ZM67.7892 55.0802C67.1196 55.4111 66.8212 55.9433 66.8308 56.7895C66.837 57.3453 66.9174 57.6268 67.286 58.384C67.8759 59.5957 68.382 60.2774 69.2189 60.987C70.4282 62.0125 72.3164 62.7754 75.2502 63.424C79.2366 64.3051 80.67 64.7217 81.4194 65.2168C81.6921 65.397 83.4272 67.0655 85.2752 68.9247C88.6519 72.3218 89.6175 73.1621 90.8385 73.7663C91.7544 74.2196 92.3925 74.3155 93.6425 74.1878C96.5404 73.8919 98.5079 72.1256 99.231 69.1709C99.4854 68.1313 99.479 65.7596 99.2185 64.527C98.346 60.3997 95.9034 57.0629 92.8765 55.8634C91.8598 55.4605 91.1738 55.3686 89.6331 55.429C88.1 55.4891 86.7211 55.7823 83.5676 56.7189C80.3342 57.6792 79.9496 57.755 78.2797 57.7597C76.4431 57.765 76.5182 57.7866 73.0618 56.2593C71.7067 55.6605 70.3206 55.0985 69.9816 55.0103C69.1048 54.7823 68.343 54.8066 67.7892 55.0802ZM70.9431 55.8856C71.464 56.0877 72.5099 56.5368 73.2673 56.8836C74.0246 57.2305 75.054 57.6574 75.5547 57.8322C77.9399 58.6653 78.8519 58.5755 84.6237 56.939C87.4002 56.1517 88.3471 55.9499 89.6267 55.8727C93.1828 55.6583 96.0439 57.7477 97.8634 61.8878C98.6253 63.6216 98.9356 65.0913 98.9356 66.9674C98.9355 69.2361 98.2924 70.985 97.0039 72.2199C96.1603 73.0286 95.3973 73.3982 94.1108 73.6213C92.2286 73.9478 91.1621 73.6419 89.4577 72.2866C88.9448 71.8788 87.0874 70.0932 85.3303 68.3185C83.4987 66.4687 81.8769 64.9265 81.5296 64.7042C80.9124 64.3091 79.362 63.8717 74.4791 62.7152C72.5824 62.266 71.5199 61.8794 70.4223 61.2389C68.8646 60.3303 67.4627 58.3394 67.3444 56.868C67.2889 56.1779 67.2933 56.1642 67.6893 55.7914C68.3148 55.2026 69.2524 55.2296 70.9431 55.8856ZM58.4918 58.259C58.0333 60.0512 58.0169 61.637 58.4366 63.5961C58.7262 64.9479 59.2719 66.2494 60.9923 69.693C62.8986 73.5087 63.109 73.9933 63.5638 75.6169C64.0317 77.2878 64.1394 78.0187 64.1393 79.5264C64.1391 81.6376 63.5534 84.0329 62.5442 86.0498C61.9971 87.1432 61.8743 87.5962 61.6433 89.3722C61.3062 91.9642 61.5737 94.7582 62.3864 97.1318C63.1641 99.4033 64.5055 101.656 65.8892 103.015C67.2703 104.371 68.5196 104.985 69.9072 104.99C70.8016 104.993 71.5302 104.709 72.3511 104.037L72.854 103.626L72.4648 104.393C71.9068 105.492 71.0169 106.707 70.4918 107.087C69.8881 107.523 69.0116 107.543 68.1586 107.141C66.5755 106.393 64.3162 103.552 62.0348 99.4411C61.5313 98.5339 60.8583 97.3215 60.5391 96.7469C56.7765 89.9739 54.5713 83.1241 53.9897 76.4033C53.4903 70.6337 54.7453 64.3233 57.3356 59.5786C58.0998 58.1787 58.6124 57.3385 58.6671 57.3964C58.6868 57.4172 58.6079 57.8054 58.4918 58.259ZM81.5318 90.6896C83.3577 91.3821 84.6811 93.1676 85.1019 95.506C85.2906 96.5548 85.4146 97.8466 85.3265 97.8466C85.2907 97.8466 84.9475 97.191 84.5638 96.3896C83.4153 93.9909 82.2517 92.3981 81.282 91.8976C80.1871 91.3322 79.0544 91.6097 78.0831 92.6811C77.3827 93.4537 76.3622 95.2292 75.6358 96.9394C75.3468 97.6199 75.0983 98.1765 75.0836 98.1765C75.0495 98.1765 75.1213 97.378 75.2585 96.2342C75.588 93.4844 77.0178 91.3314 78.9786 90.6322C79.5934 90.4129 80.8787 90.4418 81.5318 90.6896Z" fill="currentColor"/>
</svg>