<svg xmlns="http://www.w3.org/2000/svg" width="64" height="64" viewBox="0 0 64 64" fill="none">
    <path fill-rule="evenodd" clip-rule="evenodd" d="M17.0585 11.3721C21.0578 7.42403 26.4802 5.20312 32.1361 5.19653C37.792 5.20312 43.2143 7.42403 47.2136 11.3721C51.213 15.3201 53.4627 20.673 53.4694 26.2564C53.476 30.817 51.9669 35.2539 49.1736 38.8865L49.1717 38.8923C49.1717 38.8923 48.5879 39.6466 48.5026 39.7481L32.1361 58.8034L15.7773 39.7576C15.6823 39.6485 15.1004 38.8923 15.1004 38.8923C12.3057 35.2581 10.796 30.8191 10.8028 26.2564C10.8094 20.673 13.0592 15.3201 17.0585 11.3721ZM27.2037 19.9294C27.4471 19.7277 27.9074 19.4806 28.1218 19.4365C28.1917 19.4221 28.4459 19.415 28.6867 19.4207C29.0739 19.4298 29.1686 19.4423 29.5059 19.5287C29.7156 19.5825 30.1143 19.7111 30.3918 19.8146C30.6693 19.9181 31.0443 20.0424 31.2251 20.0909C31.526 20.1717 31.592 20.1793 32.0058 20.1812C32.6568 20.1842 32.9562 20.1174 34.1667 19.6991L34.887 19.4503L35.3248 19.4513C35.8012 19.4525 36.0186 19.4946 36.4398 19.6675C37.0302 19.9097 37.6162 20.4376 38.0014 21.0743C38.4422 21.8026 38.7691 22.8364 38.8274 23.6857C38.8815 24.4752 38.7434 25.8647 38.49 27.0816C37.8832 29.9943 36.8091 32.6479 35.8489 33.6062C35.512 33.9425 35.3083 34.0535 35.0272 34.054C34.8651 34.0543 34.7978 34.0394 34.6625 33.9733C34.4554 33.8722 34.1679 33.5911 33.9829 33.3087C33.8357 33.0841 33.5193 32.4912 33.3355 32.0953C32.6524 30.6243 32.3579 30.179 32.068 30.179C31.7246 30.179 31.4166 30.7093 30.6904 32.5513C30.5127 33.002 30.2145 33.5729 30.04 33.7963C29.7717 34.1397 29.5364 34.2601 29.1952 34.2287C28.8257 34.1947 28.4429 33.9119 28.0135 33.3558C27.8033 33.0837 27.5568 32.7289 27.5568 32.6987C27.5568 32.691 27.5268 32.6443 27.4901 32.5949C27.4194 32.4998 27.0463 31.8461 26.7146 31.2363C26.0066 29.9345 25.5089 28.6185 25.2589 27.3875C24.9909 26.0673 24.9551 25.0299 25.1402 23.9393C25.2609 23.2281 25.3792 22.8079 25.6302 22.1994C26.0281 21.2345 26.5671 20.4569 27.2037 19.9294Z" fill="#0A2D56"/>
</svg>