<svg width="24" height="24" viewBox="0 0 24 24" fill="none" xmlns="http://www.w3.org/2000/svg">
    <path d="M5 12.544C4.99975 12.6856 5.04067 12.8241 5.11755 12.9419C5.19444 13.0597 5.30384 13.1516 5.43188 13.2058C5.55992 13.26 5.70083 13.2742 5.83676 13.2465C5.97269 13.2188 6.09751 13.1505 6.19539 13.0502L12.6273 6.47688C13.2836 5.80639 14.1738 5.42971 15.102 5.42971C15.5616 5.42971 16.0167 5.52218 16.4413 5.70186C16.866 5.88153 17.2518 6.14489 17.5768 6.47688C17.9018 6.80888 18.1596 7.20301 18.3354 7.63679C18.5113 8.07056 18.6019 8.53547 18.6019 9.00498C18.6019 9.4745 18.5113 9.93941 18.3354 10.3732C18.1596 10.807 17.9018 11.2011 17.5768 11.5331L10.1539 19.116C9.88989 19.3764 9.53631 19.5206 9.1693 19.5173C8.80229 19.5141 8.45122 19.3637 8.19169 19.0985C7.93217 18.8334 7.78496 18.4748 7.78177 18.0999C7.77858 17.7249 7.91966 17.3637 8.17464 17.0941L15.5975 9.51118C15.6626 9.4447 15.7142 9.36579 15.7494 9.27893C15.7846 9.19208 15.8028 9.09899 15.8028 9.00498C15.8028 8.91098 15.7846 8.81789 15.7494 8.73104C15.7142 8.64418 15.6626 8.56527 15.5975 8.49879C15.5325 8.43232 15.4552 8.37959 15.3702 8.34361C15.2852 8.30764 15.194 8.28912 15.102 8.28912C15.01 8.28912 14.9189 8.30764 14.8338 8.34361C14.7488 8.37959 14.6716 8.43232 14.6065 8.49879L7.18361 16.0831C6.91623 16.3469 6.70296 16.6625 6.55624 17.0114C6.40952 17.3603 6.33229 17.7356 6.32906 18.1153C6.32583 18.495 6.39667 18.8716 6.53743 19.2231C6.67819 19.5745 6.88606 19.8939 7.14892 20.1624C7.41177 20.4309 7.72434 20.6432 8.06839 20.787C8.41244 20.9308 8.78107 21.0032 9.15279 20.9999C9.52451 20.9966 9.89186 20.9177 10.2334 20.7678C10.575 20.6179 10.8839 20.4001 11.1421 20.1269L18.565 12.544C19.4838 11.6054 20 10.3324 20 9.00498C20 7.67758 19.4838 6.40454 18.565 5.46593C17.6462 4.52731 16.4 4 15.1006 4C13.8012 4 12.555 4.52731 11.6362 5.46593L5.20576 12.0379C5.14069 12.1043 5.08913 12.1832 5.05405 12.2701C5.01898 12.357 4.99968 12.4501 5 12.544Z" fill="currentColor"/>
</svg>
