<svg width="24" height="24" viewBox="0 0 24 24" fill="none" xmlns="http://www.w3.org/2000/svg">
    <path fill-rule="evenodd" clip-rule="evenodd" d="M11.9997 17.3337C14.2088 17.3337 15.9997 15.5428 15.9997 13.3337C15.9997 11.1245 14.2088 9.33366 11.9997 9.33366C9.79054 9.33366 7.99967 11.1245 7.99967 13.3337C7.99967 15.5428 9.79054 17.3337 11.9997 17.3337ZM11.9997 18.0003C14.577 18.0003 16.6663 15.911 16.6663 13.3337C16.6663 10.7563 14.577 8.66699 11.9997 8.66699C9.42235 8.66699 7.33301 10.7563 7.33301 13.3337C7.33301 15.911 9.42235 18.0003 11.9997 18.0003Z" fill="currentColor"/>
    <path fill-rule="evenodd" clip-rule="evenodd" d="M12 6.00016C9.52465 6.00016 7.15068 6.98349 5.40034 8.73383C3.65 10.4842 2.66667 12.8581 2.66667 15.3335H2C2 12.6813 3.05357 10.1378 4.92893 8.26243C6.8043 6.38706 9.34784 5.3335 12 5.3335C14.6522 5.3335 17.1957 6.38706 19.0711 8.26243C20.9464 10.1378 22 12.6813 22 15.3335H21.3333C21.3333 12.8581 20.35 10.4842 18.5997 8.73383C16.8493 6.98349 14.4754 6.00016 12 6.00016Z" fill="currentColor"/>
</svg>
