<svg width="24" height="24" viewBox="0 0 24 24" fill="none" xmlns="http://www.w3.org/2000/svg">
    <path fill-rule="evenodd" clip-rule="evenodd" d="M6.39767 4.26456C7.89742 2.78404 9.9308 1.9512 12.0518 1.94873C14.1727 1.9512 16.2061 2.78404 17.7058 4.26456C19.2056 5.74509 20.0492 7.75239 20.0518 9.84617C20.0542 11.5564 19.4883 13.2202 18.4408 14.5825L18.4401 14.5846C18.4401 14.5846 18.2212 14.8675 18.1892 14.9056L12.0518 22.0513L5.91722 14.9091C5.88158 14.8682 5.6634 14.5846 5.6634 14.5846C4.61539 13.2218 4.04923 11.5572 4.05177 9.84617C4.05427 7.75239 4.89793 5.74509 6.39767 4.26456ZM10.2021 7.47355C10.2934 7.39793 10.466 7.30526 10.5464 7.28871C10.5726 7.28331 10.6679 7.28065 10.7582 7.28278C10.9034 7.28621 10.939 7.29089 11.0654 7.3233C11.1441 7.34346 11.2936 7.39169 11.3977 7.4305C11.5017 7.4693 11.6424 7.51593 11.7101 7.53413C11.823 7.5644 11.8477 7.56727 12.0029 7.56799C12.247 7.56911 12.3593 7.54406 12.8132 7.38721L13.0833 7.29388L13.2475 7.29428C13.4262 7.29471 13.5077 7.31052 13.6657 7.37534C13.8871 7.46618 14.1068 7.66414 14.2513 7.9029C14.4165 8.176 14.5391 8.56366 14.561 8.88217C14.5813 9.17822 14.5295 9.69931 14.4345 10.1556C14.2069 11.2479 13.8041 12.243 13.4441 12.6024C13.3177 12.7285 13.2413 12.7701 13.1359 12.7703C13.0752 12.7704 13.0499 12.7648 12.9992 12.74C12.9215 12.7021 12.8137 12.5967 12.7443 12.4908C12.6891 12.4066 12.5705 12.1842 12.5016 12.0358C12.2454 11.4841 12.1349 11.3171 12.0262 11.3171C11.8975 11.3171 11.782 11.516 11.5097 12.2068C11.443 12.3758 11.3312 12.5899 11.2657 12.6736C11.1651 12.8024 11.0769 12.8476 10.9489 12.8358C10.8104 12.8231 10.6668 12.717 10.5058 12.5085C10.427 12.4064 10.3345 12.2734 10.3345 12.262C10.3345 12.2591 10.3233 12.2416 10.3095 12.2231C10.283 12.1874 10.1431 11.9423 10.0187 11.7136C9.75321 11.2255 9.56656 10.732 9.47283 10.2704C9.3723 9.77528 9.3589 9.38623 9.42832 8.97725C9.47357 8.71056 9.51794 8.55299 9.61205 8.3248C9.76127 7.96295 9.96339 7.67138 10.2021 7.47355Z" fill="currentColor"/>
</svg>
