<svg width="220" height="220" viewBox="0 0 220 220" fill="none" xmlns="http://www.w3.org/2000/svg">
    <g opacity="0.3">
        <path d="M134.358 175.016C120.21 180.317 104.718 180.857 90.2346 176.556C75.7509 172.255 63.0657 163.346 54.1038 151.182C45.1419 139.018 40.3926 124.263 40.5764 109.155C40.7603 94.0477 45.8674 79.4124 55.1226 67.4702" stroke="white"/>
        <path d="M85.642 44.9847C99.7904 39.684 115.282 39.1432 129.765 43.4445C144.249 47.7457 156.934 56.6542 165.896 68.8181C174.858 80.982 179.607 95.7374 179.424 110.845C179.24 125.953 174.133 140.588 164.877 152.53" stroke="white"/>
    </g>
    <path d="M62.9739 39.6981L58.3896 33.2397L63.525 29.5946L68.1092 36.053L67.1719 36.7183L63.2148 31.1435L59.9542 33.4579L63.9113 39.0328L62.9739 39.6981Z" fill="white"/>
    <path d="M75.803 31.7378C75.0989 32.1003 74.4202 32.256 73.7669 32.2047C73.1119 32.1501 72.5106 31.9154 71.9629 31.5004C71.4184 31.0838 70.959 30.512 70.5847 29.785C70.2104 29.0581 70.0118 28.352 69.9889 27.6668C69.9692 26.9799 70.1283 26.3557 70.466 25.7941C70.802 25.2293 71.3221 24.7656 72.0263 24.403C72.7271 24.0421 73.4051 23.889 74.06 23.9435C74.7166 23.9931 75.3171 24.2262 75.8616 24.6429C76.406 25.0595 76.8654 25.6313 77.2397 26.3583C77.6141 27.0852 77.8127 27.7913 77.8355 28.4765C77.8584 29.1617 77.7002 29.7876 77.3609 30.3541C77.0232 30.9156 76.5039 31.3769 75.803 31.7378ZM75.302 30.7647C75.8041 30.5144 76.1619 30.192 76.3753 29.7975C76.5903 29.3981 76.6769 28.9535 76.635 28.4637C76.5914 27.9706 76.4312 27.4551 76.1542 26.9172C75.8772 26.3793 75.5524 25.9527 75.1797 25.6374C74.8053 25.3187 74.3939 25.1326 73.9456 25.0789C73.5005 25.0235 73.0278 25.1225 72.5273 25.3761C72.0252 25.6264 71.6658 25.9496 71.4491 26.3458C71.2357 26.7402 71.1507 27.184 71.1943 27.6771C71.2379 28.1702 71.3965 28.6865 71.6702 29.2261C71.9439 29.7656 72.268 30.1947 72.6424 30.5134C73.0151 30.8287 73.4256 31.0133 73.8739 31.067C74.3255 31.119 74.8015 31.0182 75.302 30.7647Z" fill="white"/>
    <path d="M83.4564 29.7875L82.7317 27.4958C82.9904 27.414 83.1833 27.2819 83.3102 27.0995C83.436 26.9136 83.5119 26.6915 83.5379 26.4333C83.5663 26.1705 83.5603 25.884 83.5199 25.5737C83.483 25.2624 83.4271 24.9397 83.3523 24.6057C83.255 24.152 83.1539 23.7109 83.0493 23.2825C82.947 22.8496 82.8367 22.4037 82.7186 21.945C82.604 21.4851 82.4784 20.9846 82.3418 20.4432L87.1785 18.9196L89.2396 25.438L89.8008 25.2606L90.5254 27.5522L89.4241 27.9004L89.0262 26.6419L84.1544 28.1823L84.5524 29.4409L83.4564 29.7875ZM84.5305 26.927L88.1436 25.7845L86.4092 20.2992L83.6806 21.1563C83.7777 21.5486 83.8723 21.9205 83.9642 22.2722C84.0562 22.6238 84.144 22.9806 84.2277 23.3425C84.3138 23.6999 84.4011 24.0857 84.4898 24.4999C84.5729 24.8966 84.6361 25.2362 84.6793 25.5186C84.7213 25.7976 84.7314 26.0482 84.7094 26.2706C84.6909 26.4918 84.6312 26.7106 84.5305 26.927Z" fill="white"/>
    <path d="M96.9522 25.1657L95.8779 17.3188L99.0493 16.8847C99.1256 16.8742 99.2206 16.8649 99.3342 16.8568C99.4473 16.845 99.556 16.8412 99.6602 16.8454C100.106 16.8548 100.489 16.954 100.811 17.1431C101.137 17.3316 101.396 17.5904 101.589 17.9192C101.782 18.2481 101.908 18.6232 101.965 19.0446C102.023 19.4696 102.004 19.8665 101.906 20.2351C101.809 20.6038 101.628 20.9226 101.365 21.1918C101.106 21.4605 100.763 21.6591 100.337 21.7878C100.237 21.8163 100.13 21.8421 100.014 21.8653C99.9027 21.888 99.8106 21.9043 99.7379 21.9142L97.7054 22.1925L98.0911 25.0097L96.9522 25.1657ZM97.5577 21.1136L99.5466 20.8413C99.6193 20.8313 99.6987 20.8168 99.7849 20.7975C99.8747 20.7778 99.9583 20.7534 100.036 20.7243C100.261 20.638 100.434 20.5125 100.556 20.3478C100.677 20.1795 100.756 19.9948 100.791 19.7938C100.826 19.5928 100.831 19.396 100.805 19.2035C100.778 19.011 100.721 18.8245 100.634 18.644C100.546 18.4599 100.421 18.3049 100.259 18.179C100.097 18.0495 99.896 17.9734 99.6561 17.9507C99.5731 17.9399 99.4858 17.937 99.394 17.9422C99.3058 17.9469 99.2254 17.9542 99.1527 17.9641L97.1638 18.2364L97.5577 21.1136Z" fill="white"/>
    <path d="M110.81 24.8704C110.019 24.8475 109.349 24.6558 108.802 24.2951C108.255 23.9308 107.842 23.4347 107.563 22.8067C107.288 22.1788 107.162 21.4562 107.186 20.6389C107.209 19.8216 107.376 19.1074 107.688 18.4965C108.002 17.8857 108.443 17.4161 109.01 17.0876C109.578 16.7556 110.257 16.601 111.049 16.6238C111.837 16.6466 112.504 16.8402 113.051 17.2044C113.602 17.5652 114.015 18.0595 114.29 18.6874C114.566 19.3153 114.692 20.0379 114.668 20.8552C114.644 21.6725 114.477 22.3866 114.166 22.9976C113.855 23.6085 113.414 24.08 112.843 24.4119C112.276 24.7404 111.598 24.8932 110.81 24.8704ZM110.842 23.7764C111.402 23.7999 111.871 23.6906 112.249 23.4484C112.63 23.2026 112.921 22.8552 113.121 22.4061C113.321 21.9534 113.43 21.4247 113.447 20.8199C113.465 20.2152 113.387 19.6847 113.213 19.2285C113.039 18.7686 112.769 18.4068 112.402 18.1431C112.039 17.8795 111.578 17.7378 111.017 17.7179C110.456 17.6943 109.986 17.8036 109.604 18.0457C109.227 18.2879 108.938 18.6354 108.738 19.0881C108.538 19.5408 108.427 20.0695 108.406 20.6742C108.385 21.2788 108.461 21.8111 108.635 22.271C108.809 22.7272 109.079 23.0871 109.446 23.3508C109.816 23.6146 110.281 23.7565 110.842 23.7764Z" fill="white"/>
    <path d="M120.789 25.033L121.736 17.1699L126.864 17.7878L126.734 18.8635L122.748 18.3832L122.52 20.2779L124.556 20.5234C124.629 20.5321 124.722 20.547 124.834 20.5679C124.95 20.5855 125.058 20.6078 125.158 20.6346C125.578 20.7369 125.92 20.9185 126.184 21.1792C126.451 21.4405 126.639 21.753 126.747 22.1168C126.858 22.4811 126.889 22.8689 126.839 23.2802C126.789 23.6916 126.669 24.0612 126.478 24.389C126.287 24.7169 126.031 24.9759 125.709 25.1661C125.39 25.3567 125.013 25.4516 124.578 25.4508C124.474 25.4531 124.365 25.4511 124.251 25.4447C124.138 25.4348 124.043 25.4252 123.967 25.416L120.789 25.033ZM122.06 24.0948L124.053 24.335C124.126 24.3438 124.206 24.3498 124.294 24.353C124.386 24.3567 124.473 24.3561 124.555 24.3512C124.917 24.3209 125.185 24.1833 125.358 23.9383C125.535 23.6937 125.641 23.4277 125.676 23.1401C125.711 22.8489 125.671 22.5652 125.557 22.2892C125.446 22.01 125.219 21.8127 124.875 21.6974C124.797 21.6695 124.713 21.6483 124.622 21.6337C124.536 21.6159 124.456 21.6026 124.383 21.5938L122.39 21.3537L122.06 24.0948Z" fill="white"/>
    <path d="M132.996 26.9422L135.178 19.3286L136.283 19.6453L135.342 22.9286L139.149 24.0195L140.09 20.7361L141.2 21.0543L139.018 28.6678L137.908 28.3497L138.85 25.061L135.043 23.9702L134.101 27.2588L132.996 26.9422Z" fill="white"/>
    <path d="M144.699 31.1782L148.251 24.0991L152.774 26.3682L152.288 27.3366L148.793 25.583L147.796 27.5691L150.702 29.0267L150.216 29.9952L147.31 28.5376L146.213 30.7252L149.708 32.4788L149.222 33.4472L144.699 31.1782Z" fill="white"/>
    <path d="M154.226 36.2917L158.611 29.6963L162.825 32.4977L162.225 33.4L158.969 31.235L157.739 33.0854L160.445 34.885L159.845 35.7873L157.139 33.9877L155.784 36.0258L159.04 38.1908L158.44 39.0931L154.226 36.2917Z" fill="white"/>
    <path d="M157.752 181.881L162.337 188.339L157.202 191.985L152.617 185.527L153.554 184.861L157.512 190.436L160.772 188.121L156.815 182.547L157.752 181.881Z" fill="white"/>
    <path d="M144.924 189.842C145.628 189.48 146.307 189.324 146.96 189.375C147.615 189.43 148.217 189.664 148.764 190.079C149.309 190.496 149.768 191.068 150.143 191.795C150.517 192.522 150.716 193.228 150.739 193.913C150.758 194.6 150.599 195.224 150.262 195.786C149.926 196.35 149.405 196.814 148.701 197.177C148.001 197.538 147.323 197.691 146.668 197.636C146.011 197.587 145.411 197.354 144.866 196.937C144.322 196.521 143.862 195.949 143.488 195.222C143.113 194.495 142.915 193.789 142.892 193.104C142.869 192.418 143.027 191.793 143.366 191.226C143.704 190.664 144.223 190.203 144.924 189.842ZM145.425 190.815C144.923 191.066 144.565 191.388 144.352 191.782C144.137 192.182 144.051 192.627 144.092 193.116C144.136 193.609 144.296 194.125 144.573 194.663C144.85 195.201 145.175 195.627 145.548 195.943C145.922 196.261 146.334 196.447 146.782 196.501C147.227 196.556 147.7 196.457 148.2 196.204C148.702 195.953 149.062 195.63 149.278 195.234C149.492 194.839 149.577 194.396 149.533 193.903C149.49 193.41 149.331 192.893 149.057 192.354C148.783 191.814 148.459 191.385 148.085 191.066C147.712 190.751 147.302 190.567 146.853 190.513C146.402 190.461 145.926 190.562 145.425 190.815Z" fill="white"/>
    <path d="M137.27 191.793L137.994 194.084C137.736 194.166 137.543 194.298 137.416 194.481C137.29 194.667 137.214 194.889 137.188 195.147C137.16 195.41 137.166 195.696 137.206 196.006C137.243 196.318 137.299 196.641 137.374 196.974C137.471 197.428 137.572 197.869 137.677 198.298C137.779 198.731 137.89 199.176 138.008 199.635C138.123 200.095 138.248 200.596 138.385 201.137L133.548 202.661L131.487 196.143L130.926 196.32L130.201 194.028L131.302 193.68L131.7 194.939L136.572 193.398L136.174 192.139L137.27 191.793ZM136.196 194.653L132.583 195.796L134.317 201.281L137.046 200.424C136.949 200.032 136.854 199.66 136.762 199.308C136.67 198.956 136.582 198.6 136.499 198.238C136.413 197.88 136.325 197.495 136.237 197.08C136.153 196.684 136.09 196.344 136.047 196.062C136.005 195.783 135.995 195.532 136.017 195.31C136.035 195.089 136.095 194.87 136.196 194.653Z" fill="white"/>
    <path d="M123.775 196.415L124.85 204.262L121.678 204.697C121.602 204.707 121.507 204.716 121.393 204.724C121.28 204.736 121.172 204.74 121.067 204.736C120.622 204.727 120.238 204.627 119.916 204.438C119.591 204.25 119.331 203.991 119.138 203.662C118.945 203.333 118.82 202.958 118.762 202.537C118.704 202.112 118.724 201.715 118.821 201.346C118.919 200.978 119.099 200.659 119.362 200.39C119.621 200.121 119.964 199.922 120.39 199.793C120.49 199.765 120.598 199.739 120.713 199.716C120.825 199.693 120.917 199.677 120.989 199.667L123.022 199.389L122.636 196.571L123.775 196.415ZM123.17 200.468L121.181 200.74C121.108 200.75 121.029 200.765 120.942 200.784C120.853 200.803 120.769 200.828 120.692 200.857C120.467 200.943 120.293 201.069 120.171 201.234C120.05 201.402 119.972 201.587 119.936 201.788C119.901 201.989 119.896 202.185 119.923 202.378C119.949 202.57 120.006 202.757 120.094 202.937C120.182 203.121 120.307 203.276 120.468 203.402C120.63 203.532 120.831 203.608 121.071 203.631C121.154 203.641 121.242 203.644 121.334 203.639C121.422 203.634 121.502 203.627 121.575 203.617L123.564 203.345L123.17 200.468Z" fill="white"/>
    <path d="M109.917 196.712C110.708 196.735 111.378 196.926 111.925 197.287C112.472 197.651 112.885 198.147 113.164 198.775C113.44 199.403 113.565 200.126 113.542 200.943C113.518 201.76 113.351 202.475 113.04 203.086C112.725 203.696 112.284 204.166 111.717 204.494C111.15 204.827 110.471 204.981 109.679 204.958C108.891 204.936 108.223 204.742 107.676 204.378C107.125 204.017 106.712 203.523 106.437 202.895C106.162 202.267 106.036 201.545 106.059 200.727C106.083 199.91 106.25 199.196 106.561 198.585C106.872 197.974 107.313 197.502 107.884 197.17C108.451 196.842 109.129 196.689 109.917 196.712ZM109.885 197.806C109.325 197.782 108.856 197.892 108.478 198.134C108.097 198.38 107.806 198.727 107.606 199.176C107.406 199.629 107.297 200.158 107.28 200.762C107.262 201.367 107.341 201.898 107.515 202.354C107.688 202.814 107.959 203.176 108.325 203.439C108.688 203.703 109.15 203.845 109.71 203.864C110.271 203.888 110.742 203.779 111.123 203.536C111.5 203.294 111.789 202.947 111.989 202.494C112.19 202.041 112.3 201.513 112.321 200.908C112.342 200.303 112.266 199.771 112.092 199.311C111.918 198.855 111.648 198.495 111.282 198.231C110.911 197.968 110.446 197.826 109.885 197.806Z" fill="white"/>
    <path d="M99.9383 196.549L98.9912 204.413L93.8638 203.795L93.9933 202.719L97.9795 203.199L98.2077 201.305L96.171 201.059C96.0981 201.051 96.0058 201.036 95.8938 201.015C95.7777 200.997 95.6696 200.975 95.5694 200.948C95.1497 200.846 94.8077 200.664 94.5437 200.404C94.276 200.142 94.0884 199.83 93.9808 199.466C93.8695 199.102 93.8387 198.714 93.8882 198.303C93.9378 197.891 94.058 197.522 94.2489 197.194C94.4398 196.866 94.6963 196.607 95.0183 196.417C95.3367 196.226 95.7138 196.131 96.1495 196.132C96.2532 196.13 96.3619 196.132 96.4756 196.138C96.5889 196.148 96.6838 196.157 96.7602 196.167L99.9383 196.549ZM98.6674 197.488L96.6743 197.248C96.6015 197.239 96.521 197.233 96.4328 197.23C96.3409 197.226 96.254 197.227 96.1722 197.231C95.8103 197.262 95.5426 197.399 95.369 197.644C95.1919 197.889 95.0859 198.155 95.0513 198.443C95.0162 198.734 95.0559 199.017 95.1704 199.293C95.2808 199.573 95.5082 199.77 95.8525 199.885C95.9304 199.913 96.0147 199.934 96.1052 199.949C96.1917 199.967 96.2714 199.98 96.3442 199.989L98.3373 200.229L98.6674 197.488Z" fill="white"/>
    <path d="M87.731 194.641L85.5498 202.255L84.4448 201.938L85.3854 198.655L81.5786 197.564L80.6379 200.848L79.5276 200.53L81.7088 192.916L82.8191 193.234L81.877 196.523L85.6838 197.613L86.626 194.325L87.731 194.641Z" fill="white"/>
    <path d="M76.0267 190.406L72.4756 197.485L67.9527 195.216L68.4385 194.248L71.9339 196.001L72.9302 194.015L70.0248 192.557L70.5106 191.589L73.416 193.046L74.5134 190.859L71.0181 189.105L71.5039 188.137L76.0267 190.406Z" fill="white"/>
    <path d="M66.5007 185.293L62.1162 191.889L57.9023 189.087L58.5022 188.185L61.7588 190.35L62.9888 188.5L60.2819 186.7L60.8817 185.798L63.5887 187.597L64.9436 185.559L61.687 183.394L62.2868 182.492L66.5007 185.293Z" fill="white"/>
    <circle opacity="0.85" cx="110" cy="110" r="61.2347" stroke="#CBE6F1"/>
    <path fill-rule="evenodd" clip-rule="evenodd" d="M95.3229 81.9228C94.5163 82.0889 92.7848 83.0185 91.8693 83.7771C89.4743 85.7617 87.4466 88.6867 85.9497 92.3168C85.0056 94.6059 84.5605 96.1867 84.1065 98.862C83.4101 102.965 83.5446 106.868 84.553 111.834C85.4934 116.465 87.3658 121.416 90.0293 126.313C91.277 128.607 92.6805 131.066 92.9466 131.424C93.0846 131.61 93.1976 131.786 93.1976 131.815C93.1976 131.928 94.1251 133.263 94.9157 134.287C96.531 136.379 97.9712 137.443 99.361 137.571C100.645 137.689 101.53 137.236 102.539 135.944C103.196 135.103 104.318 132.956 104.986 131.26C107.718 124.331 108.877 122.336 110.169 122.336C111.259 122.336 112.367 124.011 114.937 129.545C115.628 131.034 116.818 133.265 117.372 134.11C118.068 135.172 119.15 136.229 119.929 136.61C120.438 136.858 120.691 136.914 121.301 136.913C122.358 136.911 123.125 136.494 124.392 135.229C128.004 131.624 132.045 121.641 134.328 110.683C135.281 106.106 135.801 100.878 135.597 97.9082C135.378 94.713 134.148 90.824 132.49 88.0842C131.041 85.6891 128.836 83.7032 126.615 82.7918C125.03 82.1416 124.213 81.983 122.42 81.9787L120.773 81.9746L118.064 82.9109C113.51 84.4844 112.384 84.7357 109.934 84.7245C108.378 84.7173 108.129 84.6885 106.998 84.3848C106.318 84.2023 104.907 83.7345 103.863 83.3452C102.819 82.9559 101.319 82.472 100.53 82.2698C99.2612 81.9447 98.9049 81.8977 97.4482 81.8634C96.5423 81.8419 95.5859 81.8687 95.3229 81.9228ZM100.325 83.3824C101.001 83.5573 102.488 84.0411 103.63 84.4575C105.978 85.3133 107.335 85.6845 108.749 85.8571C111.018 86.1344 113.736 85.6284 117.856 84.1614C120.737 83.1356 121.089 83.0518 122.474 83.061C128.148 83.0991 132.536 87.8441 134.178 95.716C134.454 97.0429 134.475 97.3107 134.468 99.5298C134.459 102.419 134.137 105.663 133.573 108.546C131.415 119.572 127.726 129.524 124.216 133.788C121.899 136.604 120.286 136.468 118.197 133.281C117.765 132.621 117.008 131.263 116.515 130.263L115.62 128.445L115.617 127.273C115.615 125.778 115.477 124.843 115.1 123.75C113.973 120.488 111.311 118.915 108.617 119.921C107.872 120.199 107.262 120.655 106.607 121.426C105.651 122.552 105.085 124.24 104.838 126.711C104.649 128.599 104.399 129.596 103.821 130.768C103.005 132.423 102.041 133.311 100.762 133.585C99.2481 133.909 97.2368 132.781 95.7076 130.751C94.9255 129.713 93.7596 127.461 93.41 126.313C92.266 122.558 92.3626 118.577 93.6642 115.837C94.7466 113.558 95.1606 111.804 95.16 109.501C95.1596 107.869 95.0187 106.947 94.5143 105.274C94.1571 104.09 93.6989 103.072 91.8956 99.4553C89.9232 95.4995 89.3849 93.8467 89.3758 91.7185C89.3668 89.638 90.2966 86.8848 91.4183 85.67C92.465 84.5365 94.4233 83.2585 95.4292 83.0524C95.5753 83.0225 96.4599 83.013 97.3951 83.0312C98.8729 83.0601 99.2561 83.106 100.325 83.3824ZM98.2212 85.9622C97.5753 86.2814 97.2874 86.7948 97.2967 87.611C97.3026 88.1471 97.3802 88.4187 97.7357 89.1491C98.3048 90.3179 98.793 90.9755 99.6003 91.66C100.767 92.6492 102.588 93.385 105.418 94.0107C109.263 94.8606 110.646 95.2624 111.369 95.7401C111.632 95.9138 113.306 97.5233 115.088 99.3167C118.345 102.594 119.277 103.404 120.455 103.987C121.338 104.424 121.954 104.517 123.159 104.394C125.955 104.108 127.853 102.404 128.55 99.5542C128.795 98.5513 128.789 96.2637 128.538 95.0747C127.696 91.0934 125.34 87.8747 122.42 86.7177C121.44 86.329 120.778 86.2405 119.292 86.2987C117.813 86.3566 116.483 86.6395 113.441 87.5429C110.322 88.4693 109.951 88.5424 108.34 88.5469C106.569 88.552 106.641 88.5728 103.307 87.0996C102 86.522 100.663 85.9798 100.336 85.8948C99.4902 85.6749 98.7554 85.6983 98.2212 85.9622ZM101.263 86.7391C101.766 86.9341 102.775 87.3673 103.505 87.7018C104.236 88.0364 105.229 88.4482 105.712 88.6168C108.013 89.4204 108.892 89.3338 114.46 87.7552C117.138 86.9958 118.051 86.8012 119.286 86.7267C122.716 86.5199 125.476 88.5354 127.231 92.5289C127.966 94.2013 128.265 95.6189 128.265 97.4287C128.265 99.6171 127.645 101.304 126.402 102.495C125.588 103.275 124.852 103.632 123.611 103.847C121.796 104.162 120.767 103.867 119.123 102.56C118.628 102.166 116.836 100.444 115.141 98.732C113.375 96.9476 111.81 95.46 111.475 95.2456C110.88 94.8644 109.384 94.4426 104.674 93.327C102.845 92.8937 101.82 92.5208 100.761 91.903C99.2585 91.0265 97.9062 89.106 97.7921 87.6868C97.7385 87.0211 97.7428 87.0079 98.1248 86.6482C98.7282 86.0803 99.6326 86.1064 101.263 86.7391ZM89.2528 89.0285C88.8105 90.7573 88.7947 92.287 89.1996 94.1767C89.4789 95.4806 90.0053 96.7361 91.6648 100.058C93.5036 103.738 93.7066 104.206 94.1453 105.772C94.5967 107.384 94.7005 108.089 94.7004 109.543C94.7003 111.58 94.1353 113.89 93.1618 115.836C92.6341 116.89 92.5156 117.327 92.2927 119.04C91.9676 121.541 92.2257 124.236 93.0096 126.525C93.7597 128.716 95.0537 130.89 96.3884 132.2C97.7207 133.509 98.9257 134.101 100.264 134.105C101.127 134.108 101.83 133.834 102.622 133.186L103.107 132.79L102.731 133.529C102.193 134.59 101.335 135.761 100.828 136.128C100.246 136.549 99.4003 136.568 98.5775 136.18C97.0504 135.459 94.8711 132.719 92.6704 128.753C92.1848 127.878 91.5356 126.708 91.2276 126.154C87.5983 119.621 85.4711 113.013 84.9101 106.531C84.4284 100.965 85.639 94.8781 88.1376 90.3014C88.8747 88.9511 89.3692 88.1406 89.4219 88.1965C89.4409 88.2165 89.3648 88.591 89.2528 89.0285ZM111.477 120.311C113.239 120.979 114.515 122.701 114.921 124.957C115.103 125.969 115.223 127.215 115.138 127.215C115.103 127.215 114.772 126.583 114.402 125.809C113.294 123.496 112.172 121.959 111.236 121.476C110.18 120.931 109.088 121.199 108.151 122.232C107.475 122.977 106.491 124.69 105.79 126.34C105.511 126.996 105.272 127.533 105.257 127.533C105.224 127.533 105.294 126.763 105.426 125.66C105.744 123.007 107.123 120.93 109.015 120.256C109.608 120.044 110.847 120.072 111.477 120.311Z" fill="white"/>
</svg>
