<svg width="24" height="24" viewBox="0 0 24 24" fill="none" xmlns="http://www.w3.org/2000/svg">
    <path fill-rule="evenodd" clip-rule="evenodd" d="M11.0241 17.389C14.5394 17.389 17.389 14.5394 17.389 11.0241C17.389 7.50891 14.5394 4.65927 11.0241 4.65927C7.50891 4.65927 4.65927 7.50891 4.65927 11.0241C4.65927 14.5394 7.50891 17.389 11.0241 17.389ZM11.0241 18.2983C15.0415 18.2983 18.2983 15.0415 18.2983 11.0241C18.2983 7.00674 15.0415 3.75 11.0241 3.75C7.00674 3.75 3.75 7.00674 3.75 11.0241C3.75 15.0415 7.00674 18.2983 11.0241 18.2983Z" fill="currentColor"/>
    <path fill-rule="evenodd" clip-rule="evenodd" d="M20.2656 20.453L15.2646 15.9067L15.8763 15.2339L20.8773 19.7802L20.2656 20.453Z" fill="currentColor"/>
</svg>
