<svg
        width="220"
        height="220"
        viewBox="0 0 220 220"
        fill="none"
        xmlns="http://www.w3.org/2000/svg"
>
    <g opacity="0.3">
        <path
                d="M134.358 175.015C120.21 180.316 104.718 180.857 90.2348 176.556C75.7512 172.254 63.066 163.346 54.1041 151.182C45.1422 139.018 40.3928 124.263 40.5767 109.155C40.7605 94.0473 45.8676 79.4119 55.1229 67.4697"
                stroke="currentColor"
        />
        <path
                d="M85.642 44.9847C99.7904 39.684 115.282 39.1432 129.765 43.4445C144.249 47.7457 156.934 56.6542 165.896 68.8181C174.858 80.982 179.607 95.7374 179.424 110.845C179.24 125.953 174.133 140.588 164.877 152.53"
                stroke="currentColor"
        />
    </g>
    <path
            d="M84.4981 28.4463L84.842 26.1897L80.457 21.4111L81.6908 21.0258L85.0503 24.8454L85.6912 19.7764L86.8619 19.4107L85.6846 28.0757L84.4981 28.4463Z"
            fill="currentColor"
    />
    <path
            d="M95.5453 25.3915C94.7661 25.5333 94.0715 25.4845 93.4614 25.2452C92.8507 25.0022 92.3438 24.6025 91.9407 24.0461C91.5411 23.4889 91.2682 22.8081 91.1218 22.0037C90.9754 21.1992 90.991 20.4659 91.1687 19.8037C91.35 19.1409 91.6839 18.59 92.1705 18.1512C92.6565 17.7087 93.2891 17.4165 94.0683 17.2748C94.9665 17.1113 95.751 17.2033 96.4217 17.5509C97.0961 17.8978 97.6186 18.4344 97.9893 19.1608L96.8983 19.6779C96.6476 19.1608 96.2993 18.7825 95.8532 18.5432C95.4108 18.3032 94.8811 18.2393 94.2642 18.3516C93.7123 18.452 93.275 18.6602 92.9523 18.976C92.6297 19.2919 92.4152 19.6906 92.3091 20.172C92.2065 20.6528 92.2093 21.1908 92.3177 21.7861C92.4224 22.3819 92.6074 22.8868 92.8728 23.3006C93.1418 23.7138 93.4829 24.0114 93.8961 24.1934C94.313 24.3747 94.7974 24.4151 95.3493 24.3147C95.9662 24.2024 96.4394 23.956 96.769 23.5756C97.1014 23.1908 97.2942 22.7141 97.3473 22.1454L98.5505 22.2451C98.4595 23.0555 98.1595 23.7418 97.6506 24.304C97.1453 24.8655 96.4435 25.228 95.5453 25.3915Z"
            fill="currentColor"
    />
    <path
            d="M102.396 23.97L102.348 22.9867C102.536 22.9958 102.689 22.9791 102.808 22.9366C102.931 22.8902 103.031 22.8081 103.11 22.6905C103.189 22.5691 103.252 22.3972 103.299 22.1746C103.351 21.9518 103.397 21.665 103.439 21.3142C103.498 20.8671 103.543 20.4078 103.575 19.9363C103.607 19.4649 103.63 18.9975 103.644 18.5343C103.661 18.0672 103.672 17.6169 103.676 17.1835C103.681 16.7501 103.681 16.3481 103.678 15.9775L108.869 15.7225L109.258 23.6329L108.11 23.6893L107.774 16.8611L104.808 17.0068C104.804 17.3007 104.798 17.6295 104.79 17.9934C104.782 18.3572 104.77 18.7433 104.753 19.1516C104.737 19.5599 104.712 19.9815 104.678 20.4163C104.648 20.851 104.603 21.2882 104.544 21.7279C104.496 22.1047 104.432 22.4456 104.352 22.7506C104.272 23.0556 104.156 23.3127 104.004 23.5221C103.853 23.7278 103.649 23.8699 103.392 23.9486C103.136 24.031 102.804 24.0381 102.396 23.97Z"
            fill="currentColor"
    />
    <path
            d="M114.912 23.7917L116.062 21.8194L113.74 15.7637L115.029 15.8588L116.749 20.6458L119.208 16.1671L120.432 16.2573L116.152 23.8831L114.912 23.7917Z"
            fill="currentColor"
    />
    <path
            d="M122.998 24.8204L124.448 17.0342L129.423 17.9604L129.224 19.0256L125.38 18.3098L124.129 25.0308L122.998 24.8204Z"
            fill="currentColor"
    />
    <path
            d="M137.224 28.7505L136.109 28.4075L137.842 22.7777L132.382 27.2602L131.268 26.9171L133.598 19.3477L134.713 19.6907L132.981 25.3152L138.439 20.838L139.554 21.1811L137.224 28.7505Z"
            fill="currentColor"
    />
    <path
            d="M135.502 192.14L135.158 194.396L139.543 199.175L138.309 199.56L134.95 195.74L134.309 200.81L133.138 201.175L134.315 192.51L135.502 192.14Z"
            fill="currentColor"
    />
    <path
            d="M124.455 195.194C125.234 195.053 125.929 195.101 126.539 195.341C127.149 195.584 127.656 195.983 128.059 196.54C128.459 197.097 128.732 197.778 128.878 198.582C129.025 199.387 129.009 200.12 128.831 200.782C128.65 201.445 128.316 201.996 127.829 202.435C127.344 202.877 126.711 203.169 125.932 203.311C125.033 203.475 124.249 203.383 123.578 203.035C122.904 202.688 122.381 202.152 122.011 201.425L123.102 200.908C123.352 201.425 123.701 201.803 124.147 202.043C124.589 202.283 125.119 202.347 125.736 202.234C126.288 202.134 126.725 201.926 127.048 201.61C127.37 201.294 127.585 200.895 127.691 200.414C127.794 199.933 127.791 199.395 127.682 198.8C127.578 198.204 127.393 197.699 127.127 197.285C126.858 196.872 126.517 196.575 126.104 196.393C125.687 196.211 125.203 196.171 124.651 196.271C124.034 196.384 123.561 196.63 123.231 197.01C122.899 197.395 122.706 197.872 122.653 198.441L121.449 198.341C121.541 197.53 121.84 196.844 122.349 196.282C122.855 195.72 123.556 195.358 124.455 195.194Z"
            fill="currentColor"
    />
    <path
            d="M117.604 196.616L117.652 197.599C117.464 197.59 117.311 197.607 117.192 197.649C117.069 197.696 116.969 197.778 116.89 197.895C116.811 198.017 116.748 198.189 116.701 198.411C116.649 198.634 116.603 198.921 116.561 199.272C116.502 199.719 116.457 200.178 116.425 200.65C116.393 201.121 116.37 201.588 116.356 202.052C116.339 202.519 116.328 202.969 116.324 203.402C116.319 203.836 116.319 204.238 116.322 204.608L111.131 204.863L110.742 196.953L111.89 196.897L112.226 203.725L115.192 203.579C115.196 203.285 115.202 202.956 115.21 202.593C115.218 202.229 115.23 201.843 115.247 201.434C115.263 201.026 115.288 200.604 115.322 200.17C115.352 199.735 115.397 199.298 115.456 198.858C115.504 198.481 115.568 198.14 115.648 197.835C115.728 197.53 115.844 197.273 115.996 197.064C116.147 196.858 116.351 196.716 116.608 196.637C116.864 196.555 117.196 196.548 117.604 196.616Z"
            fill="currentColor"
    />
    <path
            d="M105.088 196.794L103.938 198.767L106.26 204.822L104.971 204.727L103.251 199.94L100.792 204.419L99.5684 204.329L103.848 196.703L105.088 196.794Z"
            fill="currentColor"
    />
    <path
            d="M97.0015 195.766L95.5518 203.552L90.5773 202.626L90.7756 201.56L94.62 202.276L95.8715 195.555L97.0015 195.766Z"
            fill="currentColor"
    />
    <path
            d="M82.7764 191.835L83.8908 192.178L82.1577 197.808L87.6177 193.326L88.7321 193.669L86.4019 201.238L85.2875 200.895L87.0189 195.271L81.5606 199.748L80.4462 199.405L82.7764 191.835Z"
            fill="currentColor"
    />
    <circle
            opacity="0.85"
            cx="110"
            cy="110"
            r="78.0714"
            stroke="currentColor"
    />
    <path
            fill-rule="evenodd"
            clip-rule="evenodd"
            id="tooth"
            d="M91.3203 74.2657C90.2937 74.4771 88.0899 75.6603 86.9248 76.6258C83.8766 79.1516 81.2959 82.8744 79.3907 87.4944C78.1892 90.4079 77.6226 92.4197 77.0449 95.8248C76.1586 101.047 76.3297 106.014 77.6132 112.335C78.81 118.229 81.193 124.53 84.583 130.763C86.1709 133.682 87.9572 136.812 88.2959 137.268C88.4716 137.504 88.6153 137.728 88.6153 137.764C88.6153 137.909 89.7958 139.608 90.802 140.911C92.8579 143.573 94.6909 144.927 96.4596 145.09C98.0934 145.241 99.2203 144.664 100.505 143.02C101.34 141.95 102.768 139.217 103.619 137.059C107.096 128.24 108.571 125.7 110.215 125.7C111.603 125.7 113.013 127.832 116.284 134.876C117.164 136.771 118.678 139.61 119.383 140.685C120.269 142.037 121.645 143.383 122.637 143.867C123.285 144.184 123.607 144.255 124.383 144.254C125.729 144.251 126.704 143.72 128.317 142.11C132.915 137.521 138.058 124.816 140.963 110.87C142.176 105.044 142.837 98.3908 142.578 94.6108C142.299 90.5441 140.734 85.5945 138.624 82.1076C136.779 79.0592 133.973 76.5317 131.147 75.3718C129.13 74.5442 128.089 74.3424 125.808 74.3368L123.712 74.3317L120.263 75.5234C114.467 77.526 113.034 77.8458 109.917 77.8315C107.936 77.8223 107.62 77.7857 106.179 77.3992C105.313 77.1669 103.518 76.5715 102.189 76.0761C100.86 75.5806 98.9516 74.9647 97.9473 74.7074C96.3326 74.2936 95.8792 74.2338 94.0252 74.1901C92.8722 74.1628 91.655 74.1968 91.3203 74.2657ZM97.686 76.1234C98.5465 76.3461 100.44 76.9618 101.893 77.4917C104.881 78.5809 106.609 79.0534 108.407 79.2731C111.296 79.626 114.755 78.982 119.999 77.1149C123.665 75.8093 124.113 75.7026 125.876 75.7144C133.097 75.7629 138.683 81.8019 140.772 91.8207C141.124 93.5095 141.15 93.8504 141.141 96.6746C141.13 100.352 140.721 104.48 140.002 108.15C137.255 122.183 132.56 134.849 128.094 140.276C125.145 143.86 123.091 143.687 120.433 139.631C119.882 138.791 118.919 137.062 118.292 135.79L117.152 133.476L117.15 131.984C117.146 130.081 116.972 128.891 116.491 127.5C115.057 123.348 111.669 121.347 108.24 122.627C107.292 122.981 106.516 123.562 105.682 124.542C104.465 125.975 103.745 128.124 103.43 131.269C103.189 133.672 102.872 134.94 102.136 136.433C101.097 138.539 99.87 139.669 98.243 140.018C96.316 140.43 93.7562 138.995 91.8099 136.411C90.8144 135.089 89.3307 132.223 88.8857 130.763C87.4296 125.983 87.5526 120.916 89.2092 117.429C90.5868 114.529 91.1137 112.297 91.1129 109.365C91.1124 107.288 90.9331 106.115 90.2912 103.986C89.8365 102.478 89.2534 101.183 86.9583 96.5798C84.448 91.5452 83.7628 89.4416 83.7512 86.733C83.7398 84.0851 84.9231 80.581 86.3508 79.0349C87.6829 77.5923 90.1753 75.9658 91.4555 75.7035C91.6415 75.6654 92.7674 75.6532 93.9576 75.6765C95.8384 75.7132 96.3261 75.7716 97.686 76.1234ZM95.009 79.4068C94.187 79.8131 93.8206 80.4665 93.8323 81.5053C93.8399 82.1876 93.9386 82.5332 94.3912 83.4629C95.1154 84.9504 95.7367 85.7873 96.7642 86.6585C98.2488 87.9175 100.567 88.854 104.169 89.6503C109.063 90.7321 110.822 91.2435 111.742 91.8514C112.077 92.0725 114.207 94.1209 116.476 96.4034C120.622 100.574 121.807 101.606 123.306 102.347C124.431 102.904 125.214 103.022 126.748 102.865C130.306 102.502 132.722 100.333 133.609 96.7057C133.922 95.4293 133.914 92.5177 133.594 91.0045C132.523 85.9375 129.524 81.8409 125.808 80.3683C124.56 79.8737 123.718 79.761 121.826 79.8351C119.944 79.9088 118.251 80.2688 114.38 81.4187C110.41 82.5976 109.938 82.6906 107.888 82.6964C105.633 82.7029 105.725 82.7294 101.482 80.8543C99.8183 80.1193 98.1167 79.4293 97.7005 79.321C96.6241 79.0411 95.6889 79.071 95.009 79.4068ZM98.881 80.3956C99.5204 80.6437 100.804 81.1951 101.734 81.6209C102.664 82.0467 103.928 82.5708 104.543 82.7854C107.471 83.8082 108.59 83.6979 115.676 81.6888C119.085 80.7223 120.247 80.4746 121.818 80.3798C126.184 80.1166 129.697 82.6817 131.93 87.7644C132.866 89.8929 133.247 91.6972 133.247 94.0005C133.247 96.7857 132.457 98.9328 130.875 100.449C129.84 101.442 128.903 101.895 127.323 102.169C125.013 102.57 123.703 102.195 121.611 100.531C120.981 100.03 118.701 97.8379 116.544 95.6593C114.295 93.3882 112.304 91.495 111.878 91.222C111.12 90.7369 109.217 90.2 103.222 88.7802C100.893 88.2287 99.5891 87.754 98.2415 86.9678C96.3293 85.8523 94.6081 83.408 94.4629 81.6017C94.3947 80.7544 94.4001 80.7377 94.8863 80.2799C95.6542 79.5571 96.8053 79.5903 98.881 80.3956ZM83.5947 83.3094C83.0318 85.5096 83.0117 87.4565 83.527 89.8616C83.8825 91.5212 84.5524 93.119 86.6645 97.3466C89.0048 102.031 89.2632 102.626 89.8215 104.619C90.396 106.671 90.5281 107.568 90.528 109.419C90.5279 112.011 89.8088 114.952 88.5698 117.428C87.8981 118.77 87.7473 119.326 87.4637 121.506C87.0499 124.689 87.3784 128.119 88.3761 131.033C89.3308 133.821 90.9777 136.587 92.6764 138.255C94.372 139.92 95.9057 140.674 97.6092 140.68C98.7072 140.683 99.6017 140.335 100.61 139.51L101.227 139.005L100.749 139.947C100.064 141.296 98.9716 142.788 98.3268 143.254C97.5857 143.79 96.5097 143.815 95.4625 143.32C93.519 142.403 90.7452 138.915 87.9444 133.868C87.3263 132.754 86.5001 131.266 86.1081 130.56C81.4889 122.245 78.7816 113.836 78.0676 105.585C77.4545 98.5016 78.9953 90.7543 82.1753 84.9294C83.1135 83.2108 83.7428 82.1793 83.8099 82.2504C83.8341 82.2759 83.7373 82.7525 83.5947 83.3094ZM111.88 123.124C114.122 123.974 115.747 126.166 116.263 129.037C116.495 130.324 116.647 131.91 116.539 131.91C116.495 131.91 116.074 131.105 115.603 130.121C114.193 127.177 112.764 125.221 111.574 124.607C110.23 123.913 108.839 124.253 107.647 125.569C106.787 126.517 105.534 128.697 104.642 130.796C104.287 131.632 103.982 132.315 103.964 132.315C103.922 132.315 104.01 131.335 104.179 129.931C104.583 126.555 106.339 123.912 108.746 123.053C109.501 122.784 111.079 122.82 111.88 123.124Z"
            fill="currentColor"
    />
</svg>
