<svg xmlns="http://www.w3.org/2000/svg" width="160" height="160" viewBox="0 0 160 160" fill="none">
    <path fill-rule="evenodd" clip-rule="evenodd" d="M41.961 7.23196C39.8706 7.66248 35.3828 10.0718 33.0101 12.038C26.8029 17.1814 21.5478 24.7624 17.6681 34.1705C15.2213 40.1034 14.0676 44.2002 12.8911 51.1341C11.0863 61.7675 11.4347 71.883 14.0484 84.7547C16.4855 96.7566 21.3382 109.587 28.2414 122.28C31.475 128.226 35.1126 134.599 35.8023 135.527C36.16 136.008 36.4528 136.463 36.4528 136.538C36.4528 136.833 38.8566 140.292 40.9056 142.946C45.0921 148.368 48.8248 151.125 52.4266 151.457C55.7536 151.763 58.0483 150.588 60.6636 147.24C62.3651 145.062 65.2732 139.496 67.0058 135.101C74.0861 117.142 77.0889 111.971 80.437 111.971C83.2633 111.971 86.135 116.313 92.7953 130.656C94.5874 134.516 97.6717 140.297 99.1071 142.487C100.911 145.239 103.714 147.98 105.733 148.966C107.053 149.611 107.709 149.756 109.289 149.753C112.03 149.748 114.016 148.665 117.3 145.387C126.663 136.043 137.135 110.171 143.051 81.7719C145.522 69.9077 146.869 56.3594 146.341 48.6621C145.773 40.3808 142.585 30.3017 138.288 23.2009C134.532 16.9933 128.818 11.8464 123.062 9.48433C118.955 7.79911 116.836 7.38811 112.191 7.37684L107.922 7.36639L100.899 9.79306C89.097 13.8711 86.1777 14.5224 79.83 14.4933C75.7963 14.4746 75.1522 14.4001 72.2188 13.613C70.4561 13.1399 66.8 11.9275 64.0941 10.9186C61.3882 9.90962 57.5011 8.65547 55.4561 8.13148C52.168 7.28887 51.2446 7.16708 47.4692 7.07801C45.1213 7.02248 42.6426 7.09176 41.961 7.23196ZM54.924 11.0151C56.6762 11.4684 60.5317 12.7223 63.4915 13.8013C69.5754 16.0193 73.094 16.9815 76.7567 17.4288C82.6398 18.1474 89.6834 16.8361 100.361 13.034C107.827 10.3753 108.739 10.1581 112.329 10.1821C127.034 10.2808 138.408 22.5785 142.662 42.9804C143.379 46.4193 143.432 47.1135 143.415 52.8647C143.392 60.3539 142.558 68.7594 141.095 76.2324C135.501 104.809 125.941 130.601 116.845 141.654C110.84 148.951 106.658 148.598 101.245 140.339C100.124 138.628 98.1622 135.109 96.8857 132.517L94.5645 127.806L94.559 124.768C94.5521 120.893 94.1963 118.47 93.218 115.637C90.2984 107.182 83.3974 103.106 76.4152 105.712C74.4843 106.433 72.9045 107.617 71.2075 109.613C68.7276 112.531 67.2627 116.906 66.621 123.312C66.1308 128.205 65.4836 130.787 63.9851 133.827C61.8705 138.116 59.3714 140.418 56.0582 141.127C52.1341 141.967 46.9214 139.044 42.958 133.782C40.931 131.091 37.9094 125.255 37.0033 122.28C34.0383 112.548 34.2886 102.229 37.6621 95.1283C40.4674 89.2232 41.5404 84.6775 41.5388 78.7066C41.5377 74.4784 41.1725 72.088 39.8654 67.7535C38.9395 64.6832 37.7522 62.0449 33.0784 52.6717C27.9665 42.4193 26.5713 38.1356 26.5476 32.62C26.5245 27.2278 28.9341 20.0922 31.8413 16.9439C34.5541 14.0061 39.6294 10.694 42.2364 10.1598C42.6151 10.0823 44.9079 10.0575 47.3315 10.1048C51.1617 10.1796 52.1548 10.2986 54.924 11.0151ZM49.4726 17.7012C47.7986 18.5285 47.0525 19.859 47.0765 21.9745C47.0919 23.3639 47.293 24.0677 48.2145 25.9608C49.6893 28.99 50.9545 30.6942 53.0468 32.4683C56.07 35.0321 60.7906 36.9392 68.125 38.5606C78.0911 40.7635 81.6744 41.8049 83.5481 43.0428C84.2297 43.4931 88.5674 47.6644 93.1875 52.3124C101.629 60.8053 104.043 62.9059 107.096 64.4166C109.385 65.5498 110.981 65.7895 114.106 65.4703C121.35 64.7305 126.269 60.3148 128.077 52.9279C128.713 50.3289 128.697 44.3998 128.046 41.3183C125.864 30.9999 119.758 22.6579 112.191 19.6592C109.649 18.6519 107.934 18.4223 104.082 18.5733C100.25 18.7234 96.8022 19.4566 88.9186 21.798C80.835 24.1988 79.8735 24.3883 75.6989 24.4001C71.1072 24.4133 71.295 24.4672 62.654 20.6489C59.2662 19.152 55.801 17.7469 54.9535 17.5264C52.7615 16.9565 50.8571 17.0173 49.4726 17.7012ZM57.3573 19.7147C58.6595 20.22 61.2742 21.3428 63.1677 22.2098C65.0611 23.0769 67.6345 24.1441 68.8863 24.5812C74.8492 26.664 77.1293 26.4394 91.5587 22.3481C98.5001 20.38 100.867 19.8755 104.066 19.6825C112.956 19.1465 120.109 24.3701 124.658 34.7203C126.563 39.0546 127.338 42.7289 127.338 47.4192C127.338 53.0909 125.731 57.4632 122.509 60.5505C120.4 62.5722 118.493 63.4962 115.277 64.054C110.571 64.8702 107.905 64.1054 103.644 60.7173C102.361 59.6977 97.718 55.2336 93.3252 50.7971C88.7462 46.1725 84.6918 42.317 83.8235 41.7612C82.2806 40.7734 78.4045 39.6801 66.1972 36.7888C61.4554 35.6658 58.7994 34.6992 56.0552 33.0981C52.1611 30.8265 48.6562 25.8491 48.3605 22.1708C48.2216 20.4454 48.2327 20.4113 49.2228 19.4791C50.7865 18.0072 53.1306 18.0748 57.3573 19.7147ZM26.229 25.6482C25.0827 30.1287 25.0417 34.0933 26.091 38.9909C26.815 42.3704 28.1792 45.6243 32.4803 54.2332C37.246 63.7724 37.772 64.984 38.9089 69.0431C40.0788 73.2201 40.3479 75.0475 40.3476 78.8168C40.3474 84.0946 38.883 90.0831 36.36 95.1253C34.9923 97.8588 34.6852 98.9911 34.1077 103.431C33.2649 109.911 33.9339 116.896 35.9656 122.83C37.9097 128.509 41.2634 134.142 44.7225 137.538C48.1754 140.929 51.2985 142.464 54.7676 142.475C57.0034 142.482 58.825 141.772 60.8773 140.094L62.1346 139.065L61.1616 140.982C59.7666 143.73 57.5418 146.768 56.2289 147.717C54.7197 148.808 52.5285 148.859 50.396 147.852C46.4384 145.983 40.79 138.881 35.0865 128.604C33.8278 126.335 32.1454 123.305 31.3472 121.868C21.9408 104.936 16.4276 87.8109 14.9737 71.009C13.7253 56.5851 16.8628 40.8089 23.3385 28.9471C25.2491 25.4475 26.5305 23.3469 26.6671 23.4918C26.7164 23.5437 26.5193 24.5142 26.229 25.6482ZM83.829 106.725C88.3936 108.456 91.7022 112.92 92.7542 118.766C93.226 121.388 93.5361 124.617 93.3158 124.617C93.2263 124.617 92.3684 122.978 91.4091 120.975C88.5377 114.978 85.6288 110.996 83.2046 109.745C80.4673 108.331 77.6355 109.025 75.2072 111.703C73.4562 113.635 70.905 118.074 69.089 122.349C68.3666 124.05 67.7453 125.442 67.7086 125.442C67.6233 125.442 67.8028 123.446 68.1457 120.586C68.9695 113.712 72.544 108.329 77.4461 106.581C78.9831 106.033 82.1964 106.105 83.829 106.725Z" fill="#FCFCFC"/>
</svg>