<svg width="140" height="140" viewBox="0 0 140 140" fill="none" xmlns="http://www.w3.org/2000/svg">
    <path opacity="0.6" d="M112.083 84.4665C108.663 94.4147 101.83 102.83 92.7949 108.218C83.7603 113.607 73.1088 115.621 62.7305 113.902C52.3522 112.184 42.9183 106.844 36.1028 98.8311C29.2873 90.8179 25.5309 80.6494 25.5002 70.1299C25.4695 59.6103 29.1665 49.42 35.9351 41.3673C42.7037 33.3145 52.1063 27.92 62.4744 26.141C72.8425 24.3619 83.5055 26.3135 92.5715 31.6493C101.637 36.985 108.52 45.36 111.998 55.2881" stroke="currentColor"/>
    <g opacity="0.6">
        <path fill-rule="evenodd" clip-rule="evenodd" d="M68.2953 82.4399L55.426 70.269C54.6362 69.5221 54.6362 68.3112 55.426 67.5643L68.2953 55.3935C69.085 54.6466 70.3654 54.6466 71.1552 55.3935C71.9449 56.1403 71.9449 57.3512 71.1552 58.0981L61.738 67.0042H85.167V70.8291H61.738L71.1552 79.7352C71.9449 80.4821 71.9449 81.693 71.1552 82.4399C70.3654 83.1867 69.085 83.1867 68.2953 82.4399Z" fill="currentColor"/>
    </g>
</svg>
