<svg width="80" height="80" viewBox="0 0 80 80" fill="none" xmlns="http://www.w3.org/2000/svg">
    <path opacity="0.6" d="M63.8446 47.0538C61.9069 52.6906 58.035 57.4586 52.9158 60.5119C47.7967 63.5651 41.7614 64.7061 35.8809 63.7324C30.0005 62.7587 24.6551 59.7333 20.7933 55.1929C16.9316 50.6526 14.8031 44.891 14.7858 38.9304C14.7684 32.9699 16.8631 27.196 20.6983 22.6332C24.5335 18.0704 29.8611 15.0138 35.7358 14.0058C41.6105 12.9977 47.6523 14.1035 52.7892 17.1268C57.9261 20.1502 61.8258 24.8955 63.7964 30.5209" stroke="currentColor"/>
    <g opacity="0.6">
        <path fill-rule="evenodd" clip-rule="evenodd" d="M39.0258 47.1086L31.6719 40.1538C31.2206 39.7271 31.2206 39.0351 31.6719 38.6083L39.0258 31.6536C39.4771 31.2268 40.2087 31.2268 40.66 31.6536C41.1113 32.0803 41.1113 32.7723 40.66 33.1991L35.2787 38.2883H48.6667V40.4739H35.2787L40.66 45.5631C41.1113 45.9899 41.1113 46.6818 40.66 47.1086C40.2087 47.5354 39.4771 47.5354 39.0258 47.1086Z" fill="currentColor"/>
    </g>
</svg>
