<svg width="80" height="80" viewBox="0 0 80 80" fill="none" xmlns="http://www.w3.org/2000/svg">
    <path opacity="0.6" d="M16.1554 47.0538C18.0931 52.6906 21.965 57.4586 27.0842 60.5119C32.2033 63.5651 38.2386 64.7061 44.1191 63.7324C49.9995 62.7587 55.3449 59.7333 59.2067 55.1929C63.0684 50.6526 65.1969 44.891 65.2142 38.9304C65.2316 32.9699 63.1369 27.196 59.3017 22.6332C55.4665 18.0704 50.1389 15.0138 44.2642 14.0058C38.3895 12.9977 32.3477 14.1035 27.2108 17.1268C22.0739 20.1502 18.1742 24.8955 16.2036 30.5209" stroke="currentColor"/>
    <g opacity="0.6">
        <path fill-rule="evenodd" clip-rule="evenodd" d="M40.9742 47.1086L48.3281 40.1538C48.7794 39.7271 48.7794 39.0351 48.3281 38.6083L40.9742 31.6536C40.5229 31.2268 39.7913 31.2268 39.34 31.6536C38.8887 32.0803 38.8887 32.7723 39.34 33.1991L44.7213 38.2883H31.3333V40.4739H44.7213L39.34 45.5631C38.8887 45.9899 38.8887 46.6818 39.34 47.1086C39.7913 47.5354 40.5229 47.5354 40.9742 47.1086Z" fill="currentColor"/>
    </g>
</svg>
