<svg width="140" height="140" viewBox="0 0 140 140" fill="none" xmlns="http://www.w3.org/2000/svg">
    <path opacity="0.6" d="M27.9171 55.5335C31.3369 45.5853 38.1705 37.1703 47.2051 31.7817C56.2397 26.393 66.8912 24.3793 77.2695 26.0978C87.6478 27.8163 97.0817 33.1558 103.897 41.1689C110.713 49.1821 114.469 59.3506 114.5 69.8701C114.531 80.3897 110.834 90.58 104.065 98.6327C97.2963 106.686 87.8937 112.08 77.5256 113.859C67.1575 115.638 56.4945 113.687 47.4285 108.351C38.3626 103.015 31.4801 94.64 28.0023 84.7119" stroke="currentColor"/>
    <g opacity="0.6">
        <path fill-rule="evenodd" clip-rule="evenodd" d="M71.7047 57.5601L84.574 69.731C85.3638 70.4779 85.3638 71.6888 84.574 72.4357L71.7047 84.6065C70.915 85.3534 69.6346 85.3534 68.8448 84.6065C68.0551 83.8597 68.0551 82.6488 68.8448 81.9019L78.262 72.9958H54.833V69.1709H78.262L68.8448 60.2648C68.0551 59.5179 68.0551 58.307 68.8448 57.5601C69.6346 56.8133 70.915 56.8133 71.7047 57.5601Z" fill="currentColor"/>
    </g>
</svg>
